<svg width="80" height="40" viewBox="0 0 80 40" fill="none" xmlns="http://www.w3.org/2000/svg">
<rect x="0.5" y="0.5" width="79" height="39" rx="19.5" fill="white"/>
<rect x="0.5" y="0.5" width="79" height="39" rx="19.5" stroke="#9E9E9E"/>
<path d="M31.0003 28.6695C30.8103 28.6695 30.6203 28.5995 30.4703 28.4495L23.9503 21.9295C22.8903 20.8695 22.8903 19.1295 23.9503 18.0695L30.4703 11.5495C30.7603 11.2595 31.2403 11.2595 31.5303 11.5495C31.8203 11.8395 31.8203 12.3195 31.5303 12.6095L25.0103 19.1295C24.5303 19.6095 24.5303 20.3895 25.0103 20.8695L31.5303 27.3895C31.8203 27.6795 31.8203 28.1595 31.5303 28.4495C31.3803 28.5895 31.1903 28.6695 31.0003 28.6695Z" fill="#9E9E9E"/>
<path d="M48.9096 28.6695C48.7196 28.6695 48.5296 28.5995 48.3796 28.4495C48.0896 28.1595 48.0896 27.6795 48.3796 27.3895L54.8996 20.8695C55.3796 20.3895 55.3796 19.6095 54.8996 19.1295L48.3796 12.6095C48.0896 12.3195 48.0896 11.8395 48.3796 11.5495C48.6696 11.2595 49.1496 11.2595 49.4396 11.5495L55.9596 18.0695C56.4696 18.5795 56.7596 19.2695 56.7596 19.9995C56.7596 20.7295 56.4796 21.4195 55.9596 21.9295L49.4396 28.4495C49.2896 28.5895 49.0996 28.6695 48.9096 28.6695Z" fill="#9E9E9E"/>
</svg>
