<svg width="1440" height="744" viewBox="0 0 1440 744" fill="none" xmlns="http://www.w3.org/2000/svg">
<g opacity="0.1">
<path d="M1440 124.301C1360.02 124.301 1360.02 37.1746 1280.04 37.1746C1200.06 37.1746 1200.06 124.301 1120.08 124.301C1040.09 124.301 1040.09 37.1746 960.114 37.1746C880.133 37.1746 880.133 124.301 800.152 124.301C720.171 124.301 720.171 37.1746 640.19 37.1746C560.209 37.1746 560.209 124.301 480.228 124.301C400.247 124.301 400.247 37.1746 320.266 37.1746C240.285 37.1746 240.285 124.301 160.133 124.301C80.1519 124.301 80.1519 37.1746 0 37.1746" stroke="white" stroke-width="14.2971" stroke-miterlimit="10" stroke-linecap="round"/>
<path d="M1440 271.476C1360.02 271.476 1360.02 184.349 1280.04 184.349C1200.06 184.349 1200.06 271.476 1120.08 271.476C1040.09 271.476 1040.09 184.349 960.114 184.349C880.133 184.349 880.133 271.476 800.152 271.476C720.171 271.476 720.171 184.349 640.19 184.349C560.209 184.349 560.209 271.476 480.228 271.476C400.247 271.476 400.247 184.349 320.266 184.349C240.285 184.349 240.285 271.476 160.133 271.476C80.1519 271.476 80.1519 184.349 0 184.349" stroke="white" stroke-width="14.2971" stroke-miterlimit="10" stroke-linecap="round"/>
<path d="M1440 418.651C1360.02 418.651 1360.02 331.524 1280.04 331.524C1200.06 331.524 1200.06 418.651 1120.08 418.651C1040.09 418.651 1040.09 331.524 960.114 331.524C880.133 331.524 880.133 418.651 800.152 418.651C720.171 418.651 720.171 331.524 640.19 331.524C560.209 331.524 560.209 418.651 480.228 418.651C400.247 418.651 400.247 331.524 320.266 331.524C240.285 331.524 240.285 418.651 160.133 418.651C80.1519 418.651 80.1519 331.524 0 331.524" stroke="white" stroke-width="14.2971" stroke-miterlimit="10" stroke-linecap="round"/>
<path d="M1440 565.825C1360.02 565.825 1360.02 478.698 1280.04 478.698C1200.06 478.698 1200.06 565.825 1120.08 565.825C1040.09 565.825 1040.09 478.698 960.114 478.698C880.133 478.698 880.133 565.825 800.152 565.825C720.171 565.825 720.171 478.698 640.19 478.698C560.209 478.698 560.209 565.825 480.228 565.825C400.247 565.825 400.247 478.698 320.266 478.698C240.285 478.698 240.285 565.825 160.133 565.825C80.1519 565.825 80.1519 478.698 0 478.698" stroke="white" stroke-width="14.2971" stroke-miterlimit="10" stroke-linecap="round"/>
<path d="M1440 713C1360.02 713 1360.02 625.873 1280.04 625.873C1200.06 625.873 1200.06 713 1120.08 713C1040.09 713 1040.09 625.873 960.114 625.873C880.133 625.873 880.133 713 800.152 713C720.171 713 720.171 625.873 640.19 625.873C560.209 625.873 560.209 713 480.228 713C400.247 713 400.247 625.873 320.266 625.873C240.285 625.873 240.285 713 160.133 713C80.1519 713 80.1519 625.873 0 625.873" stroke="white" stroke-width="14.2971" stroke-miterlimit="10" stroke-linecap="round"/>
</g>
</svg>
